<svg width="500" height="500" viewBox="0 0 500 500" xmlns="http://www.w3.org/2000/svg" fill-rule="evenodd" clip-rule="evenodd" stroke-linejoin="round" stroke-miterlimit="2"><path d="M69.78 448.58L29.83 1.335h439.753l-40.098 446.95-180.073 49.938-179.631-49.645z" fill="#1572b6"/><path d="M249.706 460.182l145.41-40.097 34.369-382.177H249.706v422.274z" fill="#33a9dc"/><path d="M249.706 199.915h72.852l4.994-56.108h-77.846V88.875h138.066l-1.322 14.688-13.513 151.284h-123.23v-54.932z" fill="#fff"/><path d="M250 342.386l-61.395-16.45-3.966-43.77h-55.373l7.785 86.218 112.655 31.138H250v-57.136z" fill="#ebebeb"/><path d="M317.858 252.497l-6.61 73.439-61.395 16.45v57.136l112.802-31.138.882-9.4 9.547-106.487h-55.226z" fill="#fff"/><path d="M250 88.875v54.932H116.782l-1.175-12.338-2.497-27.906-1.322-14.688H250zm-.294 111.04V254.7h-60.513l-1.176-12.19-2.496-27.908-1.322-14.687h65.507z" fill="#ebebeb" fill-rule="nonzero"/></svg>